<mxfile host="app.diagrams.net" modified="2024-12-03T14:21:11.276Z" agent="Mozilla/5.0 (Windows NT 10.0; Win64; x64) AppleWebKit/537.36 (KHTML, like Gecko) Chrome/131.0.0.0 Safari/537.36" etag="RDgYRdT1e5bdOFOS63cA" version="24.4.0" type="device">
  <diagram name="Page-1" id="8OM0Tshu7Hy8kCsDFhEu">
    <mxGraphModel dx="9232" dy="5152" grid="0" gridSize="10" guides="1" tooltips="1" connect="1" arrows="1" fold="1" page="0" pageScale="1" pageWidth="850" pageHeight="1100" math="0" shadow="0">
      <root>
        <mxCell id="0" />
        <mxCell id="1" parent="0" />
        <mxCell id="5sKti7DR4ihbuJntqLAd-18" style="edgeStyle=none;curved=1;rounded=0;orthogonalLoop=1;jettySize=auto;html=1;fontSize=12;startSize=8;endSize=8;strokeWidth=9;" edge="1" parent="1" source="5sKti7DR4ihbuJntqLAd-100" target="5sKti7DR4ihbuJntqLAd-4">
          <mxGeometry relative="1" as="geometry">
            <mxPoint x="-336.70877411325546" y="45" as="sourcePoint" />
          </mxGeometry>
        </mxCell>
        <mxCell id="5sKti7DR4ihbuJntqLAd-19" style="edgeStyle=none;curved=1;rounded=0;orthogonalLoop=1;jettySize=auto;html=1;fontSize=12;startSize=8;endSize=8;strokeWidth=9;" edge="1" parent="1" source="5sKti7DR4ihbuJntqLAd-100" target="5sKti7DR4ihbuJntqLAd-7">
          <mxGeometry relative="1" as="geometry">
            <mxPoint x="315" y="45" as="sourcePoint" />
          </mxGeometry>
        </mxCell>
        <mxCell id="5sKti7DR4ihbuJntqLAd-81" style="edgeStyle=none;curved=1;rounded=0;orthogonalLoop=1;jettySize=auto;html=1;fontSize=12;startSize=8;endSize=8;strokeWidth=9;" edge="1" parent="1" source="5sKti7DR4ihbuJntqLAd-100" target="5sKti7DR4ihbuJntqLAd-80">
          <mxGeometry relative="1" as="geometry">
            <mxPoint x="-48.48001102839862" y="45" as="sourcePoint" />
          </mxGeometry>
        </mxCell>
        <mxCell id="5sKti7DR4ihbuJntqLAd-83" style="edgeStyle=none;curved=1;rounded=0;orthogonalLoop=1;jettySize=auto;html=1;fontSize=12;startSize=8;endSize=8;strokeWidth=9;" edge="1" parent="1" source="5sKti7DR4ihbuJntqLAd-100" target="5sKti7DR4ihbuJntqLAd-82">
          <mxGeometry relative="1" as="geometry">
            <mxPoint x="28.098979873173448" y="45" as="sourcePoint" />
          </mxGeometry>
        </mxCell>
        <mxCell id="5sKti7DR4ihbuJntqLAd-26" style="edgeStyle=none;curved=1;rounded=0;orthogonalLoop=1;jettySize=auto;html=1;fontSize=12;startSize=8;endSize=8;strokeWidth=9;" edge="1" parent="1" source="5sKti7DR4ihbuJntqLAd-3" target="5sKti7DR4ihbuJntqLAd-4">
          <mxGeometry relative="1" as="geometry" />
        </mxCell>
        <mxCell id="5sKti7DR4ihbuJntqLAd-27" style="edgeStyle=none;curved=1;rounded=0;orthogonalLoop=1;jettySize=auto;html=1;fontSize=12;startSize=8;endSize=8;" edge="1" parent="1" source="5sKti7DR4ihbuJntqLAd-3" target="5sKti7DR4ihbuJntqLAd-8">
          <mxGeometry relative="1" as="geometry" />
        </mxCell>
        <mxCell id="5sKti7DR4ihbuJntqLAd-91" style="edgeStyle=none;curved=1;rounded=0;orthogonalLoop=1;jettySize=auto;html=1;fontSize=12;startSize=8;endSize=8;strokeWidth=9;" edge="1" parent="1" source="5sKti7DR4ihbuJntqLAd-3" target="5sKti7DR4ihbuJntqLAd-100">
          <mxGeometry relative="1" as="geometry">
            <mxPoint x="-192.4999999999991" y="45" as="targetPoint" />
          </mxGeometry>
        </mxCell>
        <mxCell id="5sKti7DR4ihbuJntqLAd-3" value="&lt;font style=&quot;font-size: 23px;&quot;&gt;Internet Gateway&amp;nbsp;&lt;/font&gt;" style="outlineConnect=0;dashed=0;verticalLabelPosition=bottom;verticalAlign=top;align=center;html=1;shape=mxgraph.aws3.internet_gateway;fillColor=#F58534;gradientColor=none;" vertex="1" parent="1">
          <mxGeometry x="-433" y="-858" width="224" height="228" as="geometry" />
        </mxCell>
        <mxCell id="5sKti7DR4ihbuJntqLAd-11" style="edgeStyle=none;curved=1;rounded=0;orthogonalLoop=1;jettySize=auto;html=1;fontSize=12;startSize=8;endSize=8;strokeWidth=9;" edge="1" parent="1" source="5sKti7DR4ihbuJntqLAd-4" target="5sKti7DR4ihbuJntqLAd-9">
          <mxGeometry relative="1" as="geometry" />
        </mxCell>
        <mxCell id="5sKti7DR4ihbuJntqLAd-25" style="edgeStyle=none;curved=1;rounded=0;orthogonalLoop=1;jettySize=auto;html=1;fontSize=12;startSize=8;endSize=8;strokeWidth=9;" edge="1" parent="1" source="5sKti7DR4ihbuJntqLAd-4" target="5sKti7DR4ihbuJntqLAd-7">
          <mxGeometry relative="1" as="geometry" />
        </mxCell>
        <mxCell id="5sKti7DR4ihbuJntqLAd-54" style="edgeStyle=none;curved=1;rounded=0;orthogonalLoop=1;jettySize=auto;html=1;fontSize=12;startSize=8;endSize=8;strokeWidth=9;" edge="1" parent="1" source="5sKti7DR4ihbuJntqLAd-4" target="5sKti7DR4ihbuJntqLAd-32">
          <mxGeometry relative="1" as="geometry" />
        </mxCell>
        <mxCell id="5sKti7DR4ihbuJntqLAd-4" value="&lt;div style=&quot;font-size: 18px;&quot;&gt;&lt;font style=&quot;font-size: 18px;&quot;&gt;&lt;br&gt;&lt;/font&gt;&lt;/div&gt;&lt;font style=&quot;font-size: 18px;&quot;&gt;&lt;div style=&quot;&quot;&gt;&lt;font style=&quot;font-size: 18px;&quot;&gt;&lt;br&gt;&lt;/font&gt;&lt;/div&gt;&lt;div&gt;&lt;font style=&quot;font-size: 18px;&quot;&gt;&lt;br&gt;&lt;/font&gt;&lt;/div&gt;&lt;div style=&quot;&quot;&gt;&lt;span style=&quot;background-color: initial;&quot;&gt;Availability Zone 1 (AZ1)&lt;/span&gt;&lt;/div&gt;&lt;div style=&quot;&quot;&gt;&lt;span style=&quot;background-color: initial;&quot;&gt;(Ireland)&lt;/span&gt;&lt;/div&gt;&lt;/font&gt;" style="sketch=0;outlineConnect=0;html=1;whiteSpace=wrap;fontSize=12;fontStyle=0;shape=mxgraph.aws4.group;grIcon=mxgraph.aws4.group_availability_zone;fillColor=#60a917;verticalAlign=top;align=center;spacingLeft=30;dashed=1;strokeColor=#2D7600;fontColor=#ffffff;" vertex="1" parent="1">
          <mxGeometry x="-932" y="-523" width="213" height="181" as="geometry" />
        </mxCell>
        <mxCell id="5sKti7DR4ihbuJntqLAd-43" style="edgeStyle=none;curved=1;rounded=0;orthogonalLoop=1;jettySize=auto;html=1;entryX=0.5;entryY=0;entryDx=0;entryDy=0;fontSize=12;startSize=8;endSize=8;strokeWidth=9;" edge="1" parent="1" source="5sKti7DR4ihbuJntqLAd-7" target="5sKti7DR4ihbuJntqLAd-37">
          <mxGeometry relative="1" as="geometry" />
        </mxCell>
        <mxCell id="5sKti7DR4ihbuJntqLAd-55" style="edgeStyle=none;curved=1;rounded=0;orthogonalLoop=1;jettySize=auto;html=1;fontSize=12;startSize=8;endSize=8;strokeWidth=9;" edge="1" parent="1" source="5sKti7DR4ihbuJntqLAd-7" target="5sKti7DR4ihbuJntqLAd-44">
          <mxGeometry relative="1" as="geometry" />
        </mxCell>
        <mxCell id="5sKti7DR4ihbuJntqLAd-7" value="&lt;div style=&quot;font-size: 18px;&quot;&gt;&lt;font style=&quot;font-size: 18px;&quot;&gt;&lt;br&gt;&lt;/font&gt;&lt;/div&gt;&lt;font style=&quot;font-size: 18px;&quot;&gt;&lt;div style=&quot;&quot;&gt;&lt;font style=&quot;font-size: 18px;&quot;&gt;&lt;br&gt;&lt;/font&gt;&lt;/div&gt;&lt;div&gt;&lt;font style=&quot;font-size: 18px;&quot;&gt;&lt;br&gt;&lt;/font&gt;&lt;/div&gt;&lt;div style=&quot;&quot;&gt;&lt;span style=&quot;background-color: initial;&quot;&gt;Availability Zone 2 (AZ2)&lt;/span&gt;&lt;/div&gt;&lt;div style=&quot;&quot;&gt;&lt;span style=&quot;background-color: initial;&quot;&gt;(US)&lt;/span&gt;&lt;/div&gt;&lt;/font&gt;" style="sketch=0;outlineConnect=0;html=1;whiteSpace=wrap;fontSize=12;fontStyle=0;shape=mxgraph.aws4.group;grIcon=mxgraph.aws4.group_availability_zone;strokeColor=#6F0000;fillColor=#a20025;verticalAlign=top;align=center;spacingLeft=30;dashed=1;fontColor=#ffffff;" vertex="1" parent="1">
          <mxGeometry x="674" y="-523" width="213" height="181" as="geometry" />
        </mxCell>
        <mxCell id="5sKti7DR4ihbuJntqLAd-28" style="edgeStyle=none;curved=1;rounded=0;orthogonalLoop=1;jettySize=auto;html=1;fontSize=12;startSize=8;endSize=8;strokeWidth=9;" edge="1" parent="1" source="5sKti7DR4ihbuJntqLAd-8" target="5sKti7DR4ihbuJntqLAd-7">
          <mxGeometry relative="1" as="geometry" />
        </mxCell>
        <mxCell id="5sKti7DR4ihbuJntqLAd-92" style="edgeStyle=none;curved=1;rounded=0;orthogonalLoop=1;jettySize=auto;html=1;fontSize=12;startSize=8;endSize=8;strokeWidth=9;" edge="1" parent="1" source="5sKti7DR4ihbuJntqLAd-8" target="5sKti7DR4ihbuJntqLAd-100">
          <mxGeometry relative="1" as="geometry">
            <mxPoint x="186.5000000000009" y="45" as="targetPoint" />
          </mxGeometry>
        </mxCell>
        <mxCell id="5sKti7DR4ihbuJntqLAd-97" style="edgeStyle=none;curved=1;rounded=0;orthogonalLoop=1;jettySize=auto;html=1;fontSize=12;startSize=8;endSize=8;strokeWidth=9;" edge="1" parent="1" source="5sKti7DR4ihbuJntqLAd-8" target="5sKti7DR4ihbuJntqLAd-96">
          <mxGeometry relative="1" as="geometry" />
        </mxCell>
        <mxCell id="5sKti7DR4ihbuJntqLAd-99" style="edgeStyle=none;curved=1;rounded=0;orthogonalLoop=1;jettySize=auto;html=1;fontSize=12;startSize=8;endSize=8;strokeWidth=9;" edge="1" parent="1" source="5sKti7DR4ihbuJntqLAd-8" target="5sKti7DR4ihbuJntqLAd-3">
          <mxGeometry relative="1" as="geometry" />
        </mxCell>
        <mxCell id="5sKti7DR4ihbuJntqLAd-8" value="&lt;font style=&quot;font-size: 23px;&quot;&gt;Nat Gateway&lt;/font&gt;" style="sketch=0;outlineConnect=0;fontColor=#232F3E;gradientColor=none;fillColor=#8C4FFF;strokeColor=none;dashed=0;verticalLabelPosition=bottom;verticalAlign=top;align=center;html=1;fontSize=12;fontStyle=0;aspect=fixed;pointerEvents=1;shape=mxgraph.aws4.internet_gateway;strokeWidth=23;" vertex="1" parent="1">
          <mxGeometry x="157" y="-855" width="228" height="228" as="geometry" />
        </mxCell>
        <mxCell id="5sKti7DR4ihbuJntqLAd-21" style="edgeStyle=none;curved=1;rounded=0;orthogonalLoop=1;jettySize=auto;html=1;fontSize=12;startSize=8;endSize=8;strokeWidth=9;" edge="1" parent="1" source="5sKti7DR4ihbuJntqLAd-9" target="5sKti7DR4ihbuJntqLAd-20">
          <mxGeometry relative="1" as="geometry" />
        </mxCell>
        <mxCell id="5sKti7DR4ihbuJntqLAd-9" value="&lt;font style=&quot;font-size: 33px;&quot;&gt;Public subnet (AZs)&lt;/font&gt;" style="points=[[0,0],[0.25,0],[0.5,0],[0.75,0],[1,0],[1,0.25],[1,0.5],[1,0.75],[1,1],[0.75,1],[0.5,1],[0.25,1],[0,1],[0,0.75],[0,0.5],[0,0.25]];outlineConnect=0;gradientColor=none;html=1;whiteSpace=wrap;fontSize=12;fontStyle=0;container=1;pointerEvents=0;collapsible=0;recursiveResize=0;shape=mxgraph.aws4.group;grIcon=mxgraph.aws4.group_security_group;grStroke=0;strokeColor=#7AA116;fillColor=#F2F6E8;verticalAlign=top;align=left;spacingLeft=30;fontColor=#248814;dashed=0;" vertex="1" parent="1">
          <mxGeometry x="-1779.5" y="-154" width="342" height="305" as="geometry" />
        </mxCell>
        <mxCell id="5sKti7DR4ihbuJntqLAd-24" style="edgeStyle=none;curved=1;rounded=0;orthogonalLoop=1;jettySize=auto;html=1;fontSize=12;startSize=8;endSize=8;strokeWidth=9;" edge="1" parent="1" source="5sKti7DR4ihbuJntqLAd-20" target="5sKti7DR4ihbuJntqLAd-101">
          <mxGeometry relative="1" as="geometry">
            <mxPoint x="-2687" y="376" as="targetPoint" />
          </mxGeometry>
        </mxCell>
        <mxCell id="5sKti7DR4ihbuJntqLAd-20" value="&lt;font style=&quot;font-size: 20px;&quot;&gt;Elastic Load Balancer (ALB)&lt;/font&gt;" style="sketch=0;points=[[0,0,0],[0.25,0,0],[0.5,0,0],[0.75,0,0],[1,0,0],[0,1,0],[0.25,1,0],[0.5,1,0],[0.75,1,0],[1,1,0],[0,0.25,0],[0,0.5,0],[0,0.75,0],[1,0.25,0],[1,0.5,0],[1,0.75,0]];outlineConnect=0;fontColor=#232F3E;fillColor=#ED7100;strokeColor=#ffffff;dashed=0;verticalLabelPosition=bottom;verticalAlign=top;align=center;html=1;fontSize=12;fontStyle=0;aspect=fixed;shape=mxgraph.aws4.resourceIcon;resIcon=mxgraph.aws4.elastic_load_balancing;" vertex="1" parent="1">
          <mxGeometry x="-2199" y="-89" width="209" height="209" as="geometry" />
        </mxCell>
        <mxCell id="5sKti7DR4ihbuJntqLAd-30" style="edgeStyle=none;curved=1;rounded=0;orthogonalLoop=1;jettySize=auto;html=1;fontSize=12;startSize=8;endSize=8;strokeWidth=9;" edge="1" parent="1" source="5sKti7DR4ihbuJntqLAd-22" target="5sKti7DR4ihbuJntqLAd-29">
          <mxGeometry relative="1" as="geometry" />
        </mxCell>
        <mxCell id="5sKti7DR4ihbuJntqLAd-107" style="edgeStyle=none;curved=1;rounded=0;orthogonalLoop=1;jettySize=auto;html=1;fontSize=12;startSize=8;endSize=8;strokeWidth=9;" edge="1" parent="1" source="5sKti7DR4ihbuJntqLAd-22" target="5sKti7DR4ihbuJntqLAd-48">
          <mxGeometry relative="1" as="geometry" />
        </mxCell>
        <mxCell id="5sKti7DR4ihbuJntqLAd-22" value="&lt;font style=&quot;font-size: 24px;&quot;&gt;Web Layer&lt;/font&gt;" style="image;aspect=fixed;perimeter=ellipsePerimeter;html=1;align=center;shadow=0;dashed=0;spacingTop=3;image=img/lib/active_directory/web_server.svg;" vertex="1" parent="1">
          <mxGeometry x="-2195.9999999999995" y="825.5" width="197.6" height="247" as="geometry" />
        </mxCell>
        <mxCell id="5sKti7DR4ihbuJntqLAd-29" value="&lt;font style=&quot;font-size: 29px;&quot;&gt;EC2 Instances&lt;/font&gt;" style="verticalLabelPosition=bottom;html=1;verticalAlign=top;strokeWidth=1;align=center;outlineConnect=0;dashed=0;outlineConnect=0;shape=mxgraph.aws3d.application_server;fillColor=#ECECEC;strokeColor=#5E5E5E;aspect=fixed;" vertex="1" parent="1">
          <mxGeometry x="-2884" y="818.75" width="258.4" height="260.5" as="geometry" />
        </mxCell>
        <mxCell id="5sKti7DR4ihbuJntqLAd-49" style="edgeStyle=none;curved=1;rounded=0;orthogonalLoop=1;jettySize=auto;html=1;fontSize=12;startSize=8;endSize=8;strokeWidth=9;" edge="1" parent="1" source="5sKti7DR4ihbuJntqLAd-32" target="5sKti7DR4ihbuJntqLAd-108">
          <mxGeometry relative="1" as="geometry" />
        </mxCell>
        <mxCell id="5sKti7DR4ihbuJntqLAd-32" value="&lt;font style=&quot;font-size: 33px;&quot;&gt;Private subnet (AZs)&lt;/font&gt;" style="points=[[0,0],[0.25,0],[0.5,0],[0.75,0],[1,0],[1,0.25],[1,0.5],[1,0.75],[1,1],[0.75,1],[0.5,1],[0.25,1],[0,1],[0,0.75],[0,0.5],[0,0.25]];outlineConnect=0;gradientColor=none;html=1;whiteSpace=wrap;fontSize=12;fontStyle=0;container=1;pointerEvents=0;collapsible=0;recursiveResize=0;shape=mxgraph.aws4.group;grIcon=mxgraph.aws4.group_security_group;grStroke=0;strokeColor=#00A4A6;fillColor=#E6F6F7;verticalAlign=top;align=left;spacingLeft=30;fontColor=#147EBA;dashed=0;" vertex="1" parent="1">
          <mxGeometry x="-1113" y="-158" width="340" height="317" as="geometry" />
        </mxCell>
        <mxCell id="5sKti7DR4ihbuJntqLAd-36" style="edgeStyle=none;curved=1;rounded=0;orthogonalLoop=1;jettySize=auto;html=1;fontSize=12;startSize=8;endSize=8;strokeWidth=9;" edge="1" parent="1" source="5sKti7DR4ihbuJntqLAd-37" target="5sKti7DR4ihbuJntqLAd-39">
          <mxGeometry relative="1" as="geometry" />
        </mxCell>
        <mxCell id="5sKti7DR4ihbuJntqLAd-37" value="&lt;span style=&quot;font-size: 33px;&quot;&gt;Public subnet (AZs)&lt;/span&gt;" style="points=[[0,0],[0.25,0],[0.5,0],[0.75,0],[1,0],[1,0.25],[1,0.5],[1,0.75],[1,1],[0.75,1],[0.5,1],[0.25,1],[0,1],[0,0.75],[0,0.5],[0,0.25]];outlineConnect=0;gradientColor=none;html=1;whiteSpace=wrap;fontSize=12;fontStyle=0;container=1;pointerEvents=0;collapsible=0;recursiveResize=0;shape=mxgraph.aws4.group;grIcon=mxgraph.aws4.group_security_group;grStroke=0;strokeColor=#7AA116;fillColor=#F2F6E8;verticalAlign=top;align=left;spacingLeft=30;fontColor=#248814;dashed=0;" vertex="1" parent="1">
          <mxGeometry x="1402" y="-158" width="342" height="305" as="geometry" />
        </mxCell>
        <mxCell id="5sKti7DR4ihbuJntqLAd-38" style="edgeStyle=none;curved=1;rounded=0;orthogonalLoop=1;jettySize=auto;html=1;fontSize=12;startSize=8;endSize=8;strokeWidth=9;" edge="1" parent="1" source="5sKti7DR4ihbuJntqLAd-39" target="5sKti7DR4ihbuJntqLAd-112">
          <mxGeometry relative="1" as="geometry">
            <mxPoint x="2130" y="296" as="targetPoint" />
          </mxGeometry>
        </mxCell>
        <mxCell id="5sKti7DR4ihbuJntqLAd-39" value="&lt;font style=&quot;font-size: 20px;&quot;&gt;Elastic Load Balancer (ALB)&lt;/font&gt;" style="sketch=0;points=[[0,0,0],[0.25,0,0],[0.5,0,0],[0.75,0,0],[1,0,0],[0,1,0],[0.25,1,0],[0.5,1,0],[0.75,1,0],[1,1,0],[0,0.25,0],[0,0.5,0],[0,0.75,0],[1,0.25,0],[1,0.5,0],[1,0.75,0]];outlineConnect=0;fontColor=#232F3E;fillColor=#ED7100;strokeColor=#ffffff;dashed=0;verticalLabelPosition=bottom;verticalAlign=top;align=center;html=1;fontSize=12;fontStyle=0;aspect=fixed;shape=mxgraph.aws4.resourceIcon;resIcon=mxgraph.aws4.elastic_load_balancing;" vertex="1" parent="1">
          <mxGeometry x="2015" y="-106.38" width="209" height="209" as="geometry" />
        </mxCell>
        <mxCell id="5sKti7DR4ihbuJntqLAd-40" style="edgeStyle=none;curved=1;rounded=0;orthogonalLoop=1;jettySize=auto;html=1;fontSize=12;startSize=8;endSize=8;strokeWidth=9;" edge="1" parent="1" source="5sKti7DR4ihbuJntqLAd-41" target="5sKti7DR4ihbuJntqLAd-42">
          <mxGeometry relative="1" as="geometry" />
        </mxCell>
        <mxCell id="5sKti7DR4ihbuJntqLAd-115" style="edgeStyle=none;curved=1;rounded=0;orthogonalLoop=1;jettySize=auto;html=1;fontSize=12;startSize=8;endSize=8;strokeWidth=9;" edge="1" parent="1" source="5sKti7DR4ihbuJntqLAd-41" target="5sKti7DR4ihbuJntqLAd-57">
          <mxGeometry relative="1" as="geometry" />
        </mxCell>
        <mxCell id="5sKti7DR4ihbuJntqLAd-41" value="&lt;font style=&quot;font-size: 24px;&quot;&gt;Web Layer&lt;/font&gt;" style="image;aspect=fixed;perimeter=ellipsePerimeter;html=1;align=center;shadow=0;dashed=0;spacingTop=3;image=img/lib/active_directory/web_server.svg;" vertex="1" parent="1">
          <mxGeometry x="2031" y="800" width="197.6" height="247" as="geometry" />
        </mxCell>
        <mxCell id="5sKti7DR4ihbuJntqLAd-42" value="&lt;font style=&quot;font-size: 29px;&quot;&gt;EC2 Instances&lt;/font&gt;" style="verticalLabelPosition=bottom;html=1;verticalAlign=top;strokeWidth=1;align=center;outlineConnect=0;dashed=0;outlineConnect=0;shape=mxgraph.aws3d.application_server;fillColor=#ECECEC;strokeColor=#5E5E5E;aspect=fixed;" vertex="1" parent="1">
          <mxGeometry x="2624" y="800" width="258.4" height="260.5" as="geometry" />
        </mxCell>
        <mxCell id="5sKti7DR4ihbuJntqLAd-60" style="edgeStyle=none;curved=1;rounded=0;orthogonalLoop=1;jettySize=auto;html=1;fontSize=12;startSize=8;endSize=8;strokeWidth=9;" edge="1" parent="1" source="5sKti7DR4ihbuJntqLAd-44" target="5sKti7DR4ihbuJntqLAd-114">
          <mxGeometry relative="1" as="geometry" />
        </mxCell>
        <mxCell id="5sKti7DR4ihbuJntqLAd-44" value="&lt;span style=&quot;font-size: 33px;&quot;&gt;Private subnet (AZs)&lt;/span&gt;" style="points=[[0,0],[0.25,0],[0.5,0],[0.75,0],[1,0],[1,0.25],[1,0.5],[1,0.75],[1,1],[0.75,1],[0.5,1],[0.25,1],[0,1],[0,0.75],[0,0.5],[0,0.25]];outlineConnect=0;gradientColor=none;html=1;whiteSpace=wrap;fontSize=12;fontStyle=0;container=1;pointerEvents=0;collapsible=0;recursiveResize=0;shape=mxgraph.aws4.group;grIcon=mxgraph.aws4.group_security_group;grStroke=0;strokeColor=#00A4A6;fillColor=#E6F6F7;verticalAlign=top;align=left;spacingLeft=30;fontColor=#147EBA;dashed=0;" vertex="1" parent="1">
          <mxGeometry x="766" y="-154" width="340" height="317" as="geometry" />
        </mxCell>
        <mxCell id="5sKti7DR4ihbuJntqLAd-53" style="edgeStyle=none;curved=1;rounded=0;orthogonalLoop=1;jettySize=auto;html=1;fontSize=12;startSize=8;endSize=8;strokeWidth=9;" edge="1" parent="1" source="5sKti7DR4ihbuJntqLAd-48" target="5sKti7DR4ihbuJntqLAd-52">
          <mxGeometry relative="1" as="geometry" />
        </mxCell>
        <mxCell id="5sKti7DR4ihbuJntqLAd-48" value="&lt;font style=&quot;font-size: 26px;&quot;&gt;Application Layer&lt;/font&gt;" style="image;html=1;image=img/lib/clip_art/computers/Virtual_Application_128x128.png" vertex="1" parent="1">
          <mxGeometry x="-1646" y="771" width="308" height="356" as="geometry" />
        </mxCell>
        <mxCell id="5sKti7DR4ihbuJntqLAd-75" style="edgeStyle=none;curved=1;rounded=0;orthogonalLoop=1;jettySize=auto;html=1;fontSize=12;startSize=8;endSize=8;strokeWidth=9;entryX=0.25;entryY=0;entryDx=0;entryDy=0;" edge="1" parent="1" source="5sKti7DR4ihbuJntqLAd-52" target="5sKti7DR4ihbuJntqLAd-64">
          <mxGeometry relative="1" as="geometry" />
        </mxCell>
        <mxCell id="5sKti7DR4ihbuJntqLAd-52" value="&lt;font style=&quot;font-size: 26px;&quot;&gt;Ec2 Application Servers Instances&lt;/font&gt;" style="sketch=0;aspect=fixed;pointerEvents=1;shadow=0;dashed=0;html=1;strokeColor=none;labelPosition=center;verticalLabelPosition=bottom;verticalAlign=top;align=center;fillColor=#00188D;shape=mxgraph.mscae.enterprise.application_server" vertex="1" parent="1">
          <mxGeometry x="-1071" y="796.5" width="262.3" height="305" as="geometry" />
        </mxCell>
        <mxCell id="5sKti7DR4ihbuJntqLAd-56" style="edgeStyle=none;curved=1;rounded=0;orthogonalLoop=1;jettySize=auto;html=1;fontSize=12;startSize=8;endSize=8;strokeWidth=9;" edge="1" parent="1" source="5sKti7DR4ihbuJntqLAd-57" target="5sKti7DR4ihbuJntqLAd-58">
          <mxGeometry relative="1" as="geometry" />
        </mxCell>
        <mxCell id="5sKti7DR4ihbuJntqLAd-57" value="&lt;font style=&quot;font-size: 26px;&quot;&gt;Application Layer&lt;/font&gt;" style="image;html=1;image=img/lib/clip_art/computers/Virtual_Application_128x128.png" vertex="1" parent="1">
          <mxGeometry x="1357" y="745.5" width="308" height="356" as="geometry" />
        </mxCell>
        <mxCell id="5sKti7DR4ihbuJntqLAd-77" style="edgeStyle=none;curved=1;rounded=0;orthogonalLoop=1;jettySize=auto;html=1;fontSize=12;startSize=8;endSize=8;strokeWidth=9;entryX=0.75;entryY=0;entryDx=0;entryDy=0;" edge="1" parent="1" source="5sKti7DR4ihbuJntqLAd-58" target="5sKti7DR4ihbuJntqLAd-69">
          <mxGeometry relative="1" as="geometry" />
        </mxCell>
        <mxCell id="5sKti7DR4ihbuJntqLAd-58" value="&lt;font style=&quot;font-size: 26px;&quot;&gt;Ec2 Application Servers Instances&lt;/font&gt;" style="sketch=0;aspect=fixed;pointerEvents=1;shadow=0;dashed=0;html=1;strokeColor=none;labelPosition=center;verticalLabelPosition=bottom;verticalAlign=top;align=center;fillColor=#00188D;shape=mxgraph.mscae.enterprise.application_server" vertex="1" parent="1">
          <mxGeometry x="887" y="771" width="262.3" height="305" as="geometry" />
        </mxCell>
        <mxCell id="5sKti7DR4ihbuJntqLAd-64" value="&lt;font style=&quot;font-size: 30px;&quot;&gt;Database Layer&lt;/font&gt;" style="image;html=1;image=img/lib/clip_art/computers/Database_128x128.png" vertex="1" parent="1">
          <mxGeometry x="-629" y="1127" width="420" height="637" as="geometry" />
        </mxCell>
        <mxCell id="5sKti7DR4ihbuJntqLAd-69" value="&lt;span style=&quot;font-size: 30px;&quot;&gt;Database Layer&lt;/span&gt;" style="image;html=1;image=img/lib/clip_art/computers/Database_128x128.png" vertex="1" parent="1">
          <mxGeometry x="157" y="1127" width="420" height="637" as="geometry" />
        </mxCell>
        <mxCell id="5sKti7DR4ihbuJntqLAd-74" style="edgeStyle=none;curved=1;rounded=0;orthogonalLoop=1;jettySize=auto;html=1;fontSize=12;startSize=8;endSize=8;strokeWidth=9;" edge="1" parent="1" source="5sKti7DR4ihbuJntqLAd-71" target="5sKti7DR4ihbuJntqLAd-64">
          <mxGeometry relative="1" as="geometry" />
        </mxCell>
        <mxCell id="5sKti7DR4ihbuJntqLAd-71" value="" style="sketch=0;outlineConnect=0;fontColor=#232F3E;gradientColor=none;fillColor=#C925D1;strokeColor=none;dashed=0;verticalLabelPosition=bottom;verticalAlign=top;align=center;html=1;fontSize=12;fontStyle=0;aspect=fixed;pointerEvents=1;shape=mxgraph.aws4.rds_instance;" vertex="1" parent="1">
          <mxGeometry x="-624" y="2061" width="415" height="415" as="geometry" />
        </mxCell>
        <mxCell id="5sKti7DR4ihbuJntqLAd-76" style="edgeStyle=none;curved=1;rounded=0;orthogonalLoop=1;jettySize=auto;html=1;fontSize=12;startSize=8;endSize=8;strokeWidth=9;" edge="1" parent="1" source="5sKti7DR4ihbuJntqLAd-73" target="5sKti7DR4ihbuJntqLAd-69">
          <mxGeometry relative="1" as="geometry" />
        </mxCell>
        <mxCell id="5sKti7DR4ihbuJntqLAd-73" value="" style="sketch=0;outlineConnect=0;fontColor=#232F3E;gradientColor=none;fillColor=#C925D1;strokeColor=none;dashed=0;verticalLabelPosition=bottom;verticalAlign=top;align=center;html=1;fontSize=12;fontStyle=0;aspect=fixed;pointerEvents=1;shape=mxgraph.aws4.rds_instance;" vertex="1" parent="1">
          <mxGeometry x="162" y="2061" width="415" height="415" as="geometry" />
        </mxCell>
        <mxCell id="5sKti7DR4ihbuJntqLAd-84" style="edgeStyle=none;curved=1;rounded=0;orthogonalLoop=1;jettySize=auto;html=1;fontSize=12;startSize=8;endSize=8;strokeWidth=9;" edge="1" parent="1" source="5sKti7DR4ihbuJntqLAd-80" target="5sKti7DR4ihbuJntqLAd-82">
          <mxGeometry relative="1" as="geometry" />
        </mxCell>
        <mxCell id="5sKti7DR4ihbuJntqLAd-80" value="&lt;font style=&quot;font-size: 23px;&quot;&gt;Amazon S3 Bucket&lt;/font&gt;" style="sketch=0;outlineConnect=0;fontColor=#232F3E;gradientColor=none;strokeColor=#ffffff;fillColor=#232F3E;dashed=0;verticalLabelPosition=middle;verticalAlign=bottom;align=center;html=1;whiteSpace=wrap;fontSize=10;fontStyle=1;spacing=3;shape=mxgraph.aws4.productIcon;prIcon=mxgraph.aws4.s3;" vertex="1" parent="1">
          <mxGeometry x="-394" y="-1599" width="276" height="313" as="geometry" />
        </mxCell>
        <mxCell id="5sKti7DR4ihbuJntqLAd-82" value="&lt;font style=&quot;font-size: 23px;&quot;&gt;Amazon Cloudfront&lt;/font&gt;" style="sketch=0;outlineConnect=0;fontColor=#232F3E;gradientColor=none;strokeColor=#ffffff;fillColor=#232F3E;dashed=0;verticalLabelPosition=middle;verticalAlign=bottom;align=center;html=1;whiteSpace=wrap;fontSize=10;fontStyle=1;spacing=3;shape=mxgraph.aws4.productIcon;prIcon=mxgraph.aws4.cloudfront;" vertex="1" parent="1">
          <mxGeometry x="32" y="-1595.5" width="276" height="306" as="geometry" />
        </mxCell>
        <mxCell id="5sKti7DR4ihbuJntqLAd-85" value="&lt;font style=&quot;font-size: 25px;&quot;&gt;Storagement of documents and brochures&lt;/font&gt;" style="outlineConnect=0;dashed=0;verticalLabelPosition=bottom;verticalAlign=top;align=center;html=1;shape=mxgraph.aws3.workdocs;fillColor=#D16A28;gradientColor=#F58435;gradientDirection=north;" vertex="1" parent="1">
          <mxGeometry x="-956" y="-1850" width="253" height="270" as="geometry" />
        </mxCell>
        <mxCell id="5sKti7DR4ihbuJntqLAd-86" style="edgeStyle=none;curved=1;rounded=0;orthogonalLoop=1;jettySize=auto;html=1;entryX=1;entryY=0.5;entryDx=0;entryDy=0;entryPerimeter=0;fontSize=12;startSize=8;endSize=8;strokeWidth=9;" edge="1" parent="1" source="5sKti7DR4ihbuJntqLAd-80" target="5sKti7DR4ihbuJntqLAd-85">
          <mxGeometry relative="1" as="geometry" />
        </mxCell>
        <mxCell id="5sKti7DR4ihbuJntqLAd-87" value="&lt;font style=&quot;font-size: 24px;&quot;&gt;Provides content delivery and caching fro brochures&lt;/font&gt;" style="outlineConnect=0;dashed=0;verticalLabelPosition=bottom;verticalAlign=top;align=center;html=1;shape=mxgraph.aws3.cloudfront;fillColor=#F58536;gradientColor=none;" vertex="1" parent="1">
          <mxGeometry x="604" y="-1850" width="253" height="270" as="geometry" />
        </mxCell>
        <mxCell id="5sKti7DR4ihbuJntqLAd-88" style="edgeStyle=none;curved=1;rounded=0;orthogonalLoop=1;jettySize=auto;html=1;entryX=0;entryY=0.5;entryDx=0;entryDy=0;entryPerimeter=0;fontSize=12;startSize=8;endSize=8;strokeWidth=9;" edge="1" parent="1" source="5sKti7DR4ihbuJntqLAd-82" target="5sKti7DR4ihbuJntqLAd-87">
          <mxGeometry relative="1" as="geometry" />
        </mxCell>
        <mxCell id="5sKti7DR4ihbuJntqLAd-89" value="&lt;font style=&quot;font-size: 42px;&quot;&gt;Amazon CloudWatch:&lt;/font&gt;&lt;div&gt;&lt;span style=&quot;font-size: 42px;&quot;&gt;&lt;br&gt;&lt;/span&gt;&lt;div&gt;&lt;span style=&quot;font-size: 42px; background-color: initial;&quot;&gt;Monitoring Metrics for Web, App, and Database Layers.&lt;/span&gt;&lt;/div&gt;&lt;/div&gt;&lt;div&gt;&lt;span style=&quot;font-size: 42px; background-color: initial;&quot;&gt;CloudWatch set to trigger Auto Scaling Actions.&lt;/span&gt;&lt;/div&gt;" style="sketch=0;outlineConnect=0;fontColor=#232F3E;gradientColor=none;strokeColor=#ffffff;fillColor=#232F3E;dashed=0;verticalLabelPosition=middle;verticalAlign=bottom;align=center;html=1;whiteSpace=wrap;fontSize=10;fontStyle=1;spacing=3;shape=mxgraph.aws4.productIcon;prIcon=mxgraph.aws4.cloudwatch;" vertex="1" parent="1">
          <mxGeometry x="-2983" y="-1939" width="490" height="918" as="geometry" />
        </mxCell>
        <mxCell id="5sKti7DR4ihbuJntqLAd-90" value="&lt;div style=&quot;&quot;&gt;&lt;span style=&quot;font-size: 38px; background-color: initial;&quot;&gt;Amazon Lambda:&lt;/span&gt;&lt;/div&gt;&lt;div style=&quot;&quot;&gt;&lt;span style=&quot;font-size: 38px; background-color: initial;&quot;&gt;&lt;br&gt;&lt;/span&gt;&lt;/div&gt;&lt;div style=&quot;font-size: 38px;&quot;&gt;&lt;font style=&quot;font-size: 38px;&quot;&gt;Automating any backups and recvoery points&lt;/font&gt;&lt;/div&gt;&lt;div style=&quot;font-size: 38px;&quot;&gt;&lt;font style=&quot;font-size: 38px;&quot;&gt;Also trigerring processes based on CloudWatch events&lt;/font&gt;&lt;/div&gt;" style="sketch=0;outlineConnect=0;fontColor=#232F3E;gradientColor=none;strokeColor=#ffffff;fillColor=#232F3E;dashed=0;verticalLabelPosition=middle;verticalAlign=bottom;align=center;html=1;whiteSpace=wrap;fontSize=10;fontStyle=1;spacing=3;shape=mxgraph.aws4.productIcon;prIcon=mxgraph.aws4.lambda;" vertex="1" parent="1">
          <mxGeometry x="-2143" y="-1939" width="490" height="825" as="geometry" />
        </mxCell>
        <mxCell id="5sKti7DR4ihbuJntqLAd-95" value="&lt;font style=&quot;font-size: 28px;&quot;&gt;Route Table for Public&amp;nbsp;&lt;/font&gt;&lt;span style=&quot;font-size: 28px;&quot;&gt;Subnets&lt;/span&gt;" style="outlineConnect=0;dashed=0;verticalLabelPosition=bottom;verticalAlign=top;align=center;html=1;shape=mxgraph.aws3.route_table;fillColor=#F58536;gradientColor=none;" vertex="1" parent="1">
          <mxGeometry x="-1504" y="-867" width="295" height="252" as="geometry" />
        </mxCell>
        <mxCell id="5sKti7DR4ihbuJntqLAd-96" value="&lt;span style=&quot;color: rgb(0, 0, 0); font-size: 28px;&quot;&gt;Route Table for Private Subnets&lt;/span&gt;" style="sketch=0;outlineConnect=0;fontColor=#232F3E;gradientColor=none;fillColor=#8C4FFF;strokeColor=none;dashed=0;verticalLabelPosition=bottom;verticalAlign=top;align=center;html=1;fontSize=12;fontStyle=0;aspect=fixed;pointerEvents=1;shape=mxgraph.aws4.route_table;" vertex="1" parent="1">
          <mxGeometry x="1022" y="-878.25" width="281.72" height="274.49" as="geometry" />
        </mxCell>
        <mxCell id="5sKti7DR4ihbuJntqLAd-98" style="edgeStyle=none;curved=1;rounded=0;orthogonalLoop=1;jettySize=auto;html=1;entryX=1;entryY=0.5;entryDx=0;entryDy=0;entryPerimeter=0;fontSize=12;startSize=8;endSize=8;strokeWidth=9;" edge="1" parent="1" source="5sKti7DR4ihbuJntqLAd-3" target="5sKti7DR4ihbuJntqLAd-95">
          <mxGeometry relative="1" as="geometry" />
        </mxCell>
        <mxCell id="5sKti7DR4ihbuJntqLAd-100" value="&lt;font style=&quot;font-size: 77px;&quot;&gt;AWS VPC for Medi-Advice&lt;/font&gt;" style="outlineConnect=0;dashed=0;verticalLabelPosition=bottom;verticalAlign=top;align=center;html=1;shape=mxgraph.aws3.virtual_private_cloud;fillColor=#F58534;gradientColor=none;" vertex="1" parent="1">
          <mxGeometry x="-463" y="15" width="895" height="852" as="geometry" />
        </mxCell>
        <mxCell id="5sKti7DR4ihbuJntqLAd-106" style="edgeStyle=none;curved=1;rounded=0;orthogonalLoop=1;jettySize=auto;html=1;fontSize=12;startSize=8;endSize=8;strokeWidth=9;" edge="1" parent="1" source="5sKti7DR4ihbuJntqLAd-101" target="5sKti7DR4ihbuJntqLAd-22">
          <mxGeometry relative="1" as="geometry" />
        </mxCell>
        <mxCell id="5sKti7DR4ihbuJntqLAd-101" value="&lt;font style=&quot;font-size: 30px;&quot;&gt;AWS Auto Scaling For Web Layer&lt;/font&gt;" style="sketch=0;outlineConnect=0;fontColor=#232F3E;gradientColor=none;strokeColor=#ffffff;fillColor=#232F3E;dashed=0;verticalLabelPosition=middle;verticalAlign=bottom;align=center;html=1;whiteSpace=wrap;fontSize=10;fontStyle=1;spacing=3;shape=mxgraph.aws4.productIcon;prIcon=mxgraph.aws4.autoscaling;" vertex="1" parent="1">
          <mxGeometry x="-2236" y="271" width="283" height="373" as="geometry" />
        </mxCell>
        <mxCell id="5sKti7DR4ihbuJntqLAd-109" style="edgeStyle=none;curved=1;rounded=0;orthogonalLoop=1;jettySize=auto;html=1;fontSize=12;startSize=8;endSize=8;strokeWidth=9;" edge="1" parent="1" source="5sKti7DR4ihbuJntqLAd-108" target="5sKti7DR4ihbuJntqLAd-48">
          <mxGeometry relative="1" as="geometry" />
        </mxCell>
        <mxCell id="5sKti7DR4ihbuJntqLAd-108" value="&lt;font style=&quot;font-size: 30px;&quot;&gt;AWS Auto Scaling for Application Layer&lt;/font&gt;" style="sketch=0;outlineConnect=0;fontColor=#232F3E;gradientColor=none;strokeColor=#ffffff;fillColor=#232F3E;dashed=0;verticalLabelPosition=middle;verticalAlign=bottom;align=center;html=1;whiteSpace=wrap;fontSize=10;fontStyle=1;spacing=3;shape=mxgraph.aws4.productIcon;prIcon=mxgraph.aws4.autoscaling;" vertex="1" parent="1">
          <mxGeometry x="-1636" y="271" width="283" height="410" as="geometry" />
        </mxCell>
        <mxCell id="5sKti7DR4ihbuJntqLAd-111" style="edgeStyle=none;curved=1;rounded=0;orthogonalLoop=1;jettySize=auto;html=1;fontSize=12;startSize=8;endSize=8;strokeWidth=9;" edge="1" parent="1" source="5sKti7DR4ihbuJntqLAd-112">
          <mxGeometry relative="1" as="geometry">
            <mxPoint x="2121" y="773" as="targetPoint" />
          </mxGeometry>
        </mxCell>
        <mxCell id="5sKti7DR4ihbuJntqLAd-112" value="&lt;font style=&quot;font-size: 30px;&quot;&gt;AWS Auto Scaling for Web Layer&lt;/font&gt;" style="sketch=0;outlineConnect=0;fontColor=#232F3E;gradientColor=none;strokeColor=#ffffff;fillColor=#232F3E;dashed=0;verticalLabelPosition=middle;verticalAlign=bottom;align=center;html=1;whiteSpace=wrap;fontSize=10;fontStyle=1;spacing=3;shape=mxgraph.aws4.productIcon;prIcon=mxgraph.aws4.autoscaling;" vertex="1" parent="1">
          <mxGeometry x="1978" y="277" width="283" height="374" as="geometry" />
        </mxCell>
        <mxCell id="5sKti7DR4ihbuJntqLAd-113" style="edgeStyle=none;curved=1;rounded=0;orthogonalLoop=1;jettySize=auto;html=1;fontSize=12;startSize=8;endSize=8;strokeWidth=9;" edge="1" parent="1" source="5sKti7DR4ihbuJntqLAd-114" target="5sKti7DR4ihbuJntqLAd-57">
          <mxGeometry relative="1" as="geometry">
            <mxPoint x="1512.5" y="735" as="targetPoint" />
          </mxGeometry>
        </mxCell>
        <mxCell id="5sKti7DR4ihbuJntqLAd-114" value="&lt;font style=&quot;font-size: 30px;&quot;&gt;AWS Auto Scaling for Application Layer&lt;/font&gt;" style="sketch=0;outlineConnect=0;fontColor=#232F3E;gradientColor=none;strokeColor=#ffffff;fillColor=#232F3E;dashed=0;verticalLabelPosition=middle;verticalAlign=bottom;align=center;html=1;whiteSpace=wrap;fontSize=10;fontStyle=1;spacing=3;shape=mxgraph.aws4.productIcon;prIcon=mxgraph.aws4.autoscaling;" vertex="1" parent="1">
          <mxGeometry x="1369.5" y="267" width="283" height="410" as="geometry" />
        </mxCell>
      </root>
    </mxGraphModel>
  </diagram>
</mxfile>
